<svg xmlns="http://www.w3.org/2000/svg" viewBox="0 0 1200 630" fill="none">
  <rect width="1200" height="630" fill="#14261C"/>
  <rect x="60" y="60" width="56" height="56" rx="12" fill="#1BAE70"/>
  <path d="M88 70c-4 2-8 7-8 13 0 1.5.3 2.8.8 4 1.2-3.5 3.8-6.2 7.2-7.8-2.4 2.8-3.8 6-4.2 9.5.6.2 1.3.3 2 .3 1.2 0 2.3-.3 3.3-.7C90.8 85 92 80.5 92 76c0-1.8-.3-3.4-.8-5-.8 0-1.8 0-3.2 0z" fill="white" opacity="0.95"/>
  <text x="132" y="100" font-family="system-ui, -apple-system, sans-serif" font-size="28" font-weight="700" fill="white">CDE Manager</text>
  <text x="60" y="260" font-family="system-ui, -apple-system, sans-serif" font-size="64" font-weight="700" fill="white">Plan. Execute.</text>
  <text x="60" y="340" font-family="system-ui, -apple-system, sans-serif" font-size="64" font-weight="700" fill="white">Monitor. Report.</text>
  <text x="60" y="420" font-family="system-ui, -apple-system, sans-serif" font-size="24" fill="#1BAE70" opacity="0.9">Governance-grade CDE management for EU-funded projects</text>
  <text x="60" y="570" font-family="system-ui, -apple-system, sans-serif" font-size="18" fill="white" opacity="0.3">SENIC · Powering Impact</text>
  <rect x="60" y="490" width="120" height="4" rx="2" fill="#1BAE70" opacity="0.5"/>
</svg>
